<?xml version="1.0" encoding="utf-8"?>
<!-- Uploaded to: SVG Repo, www.svgrepo.com, Generator: SVG Repo Mixer Tools -->
<svg fill="#000000" width="800px" height="800px" viewBox="0 0 32 32" version="1.1" xmlns="http://www.w3.org/2000/svg">
<title>o</title>
<path d="M24.389 7.621c-2.077-2.11-4.964-3.418-8.156-3.418-0.076 0-0.152 0.001-0.228 0.002l0.011-0c-0.046-0.001-0.1-0.001-0.154-0.001-6.443 0-11.666 5.223-11.666 11.666 0 0.043 0 0.087 0.001 0.13l-0-0.007c-0 0.038-0.001 0.082-0.001 0.126 0 6.441 5.222 11.663 11.663 11.663 0.055 0 0.111-0 0.166-0.001l-0.008 0c0.038 0 0.083 0.001 0.128 0.001 6.441 0 11.662-5.221 11.662-11.662 0-0.045-0-0.089-0.001-0.133l0 0.007c0.001-0.064 0.002-0.14 0.002-0.216 0-3.192-1.308-6.079-3.417-8.155l-0.002-0.002zM16.016 26.252c-0.030 0-0.066 0-0.102 0-5.61 0-10.158-4.548-10.158-10.158 0-0.036 0-0.071 0.001-0.107l-0 0.005c-0-0.030-0-0.064-0-0.099 0-5.612 4.549-10.161 10.161-10.161 0.035 0 0.069 0 0.104 0.001l-0.005-0c0.028-0 0.060-0 0.093-0 5.598 0 10.136 4.538 10.136 10.136 0 0.044-0 0.087-0.001 0.13l0-0.007c0 0.037 0.001 0.081 0.001 0.125 0 5.597-4.537 10.135-10.135 10.135-0.033 0-0.067-0-0.1-0l0.005 0z"></path>
</svg>